<svg width="7" height="11" viewBox="0 0 7 11" fill="none" xmlns="http://www.w3.org/2000/svg">
<path d="M6.70922 10.2458C6.89547 10.0584 7.00001 9.80498 7.00001 9.5408C7.00001 9.27661 6.89547 9.02316 6.70922 8.8358L3.16922 5.2458L6.70922 1.7058C6.89547 1.51844 7.00001 1.26498 7.00001 1.0008C7.00001 0.736612 6.89547 0.483161 6.70922 0.295798C6.61625 0.20207 6.50565 0.127675 6.38379 0.0769067C6.26193 0.026138 6.13123 -1.57411e-09 5.99922 0C5.8672 1.57434e-09 5.7365 0.026138 5.61464 0.0769067C5.49278 0.127675 5.38218 0.20207 5.28922 0.295798L1.04922 4.5358C0.955488 4.62876 0.881094 4.73936 0.830325 4.86122C0.779556 4.98308 0.753418 5.11379 0.753418 5.2458C0.753418 5.37781 0.779556 5.50852 0.830325 5.63037C0.881094 5.75223 0.955488 5.86283 1.04922 5.9558L5.28922 10.2458C5.38218 10.3395 5.49278 10.4139 5.61464 10.4647C5.7365 10.5155 5.8672 10.5416 5.99922 10.5416C6.13123 10.5416 6.26193 10.5155 6.38379 10.4647C6.50565 10.4139 6.61625 10.3395 6.70922 10.2458Z" fill="#959DA5"/>
</svg>
